<?xml version="1.0" encoding="utf-8" standalone="no"?>
<!DOCTYPE svg PUBLIC "-//W3C//DTD SVG 1.1//EN"
  "http://www.w3.org/Graphics/SVG/1.1/DTD/svg11.dtd">
<!-- Created with matplotlib (http://matplotlib.org/) -->
<svg height="720pt" version="1.1" viewBox="0 0 1080 720" width="1080pt" xmlns="http://www.w3.org/2000/svg" xmlns:xlink="http://www.w3.org/1999/xlink">
 <defs>
  <style type="text/css">
*{stroke-linecap:butt;stroke-linejoin:round;}
  </style>
 </defs>
 <g id="figure_1">
  <g id="patch_1">
   <path d="M 0 720 
L 1080 720 
L 1080 0 
L 0 0 
z
" style="fill:#ffffff;"/>
  </g>
  <g id="axes_1">
   <g id="patch_2">
    <path d="M 135 630 
L 972 630 
L 972 86.4 
L 135 86.4 
z
" style="fill:#ffffff;"/>
   </g>
   <g id="patch_3">
    <path clip-path="url(#pb36c989437)" d="M 173.045455 630 
L 188.263636 630 
L 188.263636 630 
L 173.045455 630 
z
" style="fill:#008000;"/>
   </g>
   <g id="patch_4">
    <path clip-path="url(#pb36c989437)" d="M 188.263636 630 
L 203.481818 630 
L 203.481818 629.501881 
L 188.263636 629.501881 
z
" style="fill:#008000;"/>
   </g>
   <g id="patch_5">
    <path clip-path="url(#pb36c989437)" d="M 203.481818 630 
L 218.7 630 
L 218.7 629.394179 
L 203.481818 629.394179 
z
" style="fill:#008000;"/>
   </g>
   <g id="patch_6">
    <path clip-path="url(#pb36c989437)" d="M 218.7 630 
L 233.918182 630 
L 233.918182 593.926735 
L 218.7 593.926735 
z
" style="fill:#008000;"/>
   </g>
   <g id="patch_7">
    <path clip-path="url(#pb36c989437)" d="M 233.918182 630 
L 249.136364 630 
L 249.136364 521.679236 
L 233.918182 521.679236 
z
" style="fill:#008000;"/>
   </g>
   <g id="patch_8">
    <path clip-path="url(#pb36c989437)" d="M 249.136364 630 
L 264.354545 630 
L 264.354545 425.993202 
L 249.136364 425.993202 
z
" style="fill:#008000;"/>
   </g>
   <g id="patch_9">
    <path clip-path="url(#pb36c989437)" d="M 264.354545 630 
L 279.572727 630 
L 279.572727 292.31547 
L 264.354545 292.31547 
z
" style="fill:#008000;"/>
   </g>
   <g id="patch_10">
    <path clip-path="url(#pb36c989437)" d="M 279.572727 630 
L 294.790909 630 
L 294.790909 167.152887 
L 279.572727 167.152887 
z
" style="fill:#008000;"/>
   </g>
   <g id="patch_11">
    <path clip-path="url(#pb36c989437)" d="M 294.790909 630 
L 310.009091 630 
L 310.009091 112.285714 
L 294.790909 112.285714 
z
" style="fill:#008000;"/>
   </g>
   <g id="patch_12">
    <path clip-path="url(#pb36c989437)" d="M 310.009091 630 
L 325.227273 630 
L 325.227273 147.019442 
L 310.009091 147.019442 
z
" style="fill:#008000;"/>
   </g>
   <g id="patch_13">
    <path clip-path="url(#pb36c989437)" d="M 325.227273 630 
L 340.445455 630 
L 340.445455 203.704077 
L 325.227273 203.704077 
z
" style="fill:#008000;"/>
   </g>
   <g id="patch_14">
    <path clip-path="url(#pb36c989437)" d="M 340.445455 630 
L 355.663636 630 
L 355.663636 316.703124 
L 340.445455 316.703124 
z
" style="fill:#008000;"/>
   </g>
   <g id="patch_15">
    <path clip-path="url(#pb36c989437)" d="M 355.663636 630 
L 370.881818 630 
L 370.881818 376.59861 
L 355.663636 376.59861 
z
" style="fill:#008000;"/>
   </g>
   <g id="patch_16">
    <path clip-path="url(#pb36c989437)" d="M 370.881818 630 
L 386.1 630 
L 386.1 433.868873 
L 370.881818 433.868873 
z
" style="fill:#008000;"/>
   </g>
   <g id="patch_17">
    <path clip-path="url(#pb36c989437)" d="M 386.1 630 
L 401.318182 630 
L 401.318182 458.1219 
L 386.1 458.1219 
z
" style="fill:#008000;"/>
   </g>
   <g id="patch_18">
    <path clip-path="url(#pb36c989437)" d="M 401.318182 630 
L 416.536364 630 
L 416.536364 487.295538 
L 401.318182 487.295538 
z
" style="fill:#008000;"/>
   </g>
   <g id="patch_19">
    <path clip-path="url(#pb36c989437)" d="M 416.536364 630 
L 431.754545 630 
L 431.754545 513.998774 
L 416.536364 513.998774 
z
" style="fill:#008000;"/>
   </g>
   <g id="patch_20">
    <path clip-path="url(#pb36c989437)" d="M 431.754545 630 
L 446.972727 630 
L 446.972727 544.734084 
L 431.754545 544.734084 
z
" style="fill:#008000;"/>
   </g>
   <g id="patch_21">
    <path clip-path="url(#pb36c989437)" d="M 446.972727 630 
L 462.190909 630 
L 462.190909 557.503441 
L 446.972727 557.503441 
z
" style="fill:#008000;"/>
   </g>
   <g id="patch_22">
    <path clip-path="url(#pb36c989437)" d="M 462.190909 630 
L 477.409091 630 
L 477.409091 567.77547 
L 462.190909 567.77547 
z
" style="fill:#008000;"/>
   </g>
   <g id="patch_23">
    <path clip-path="url(#pb36c989437)" d="M 477.409091 630 
L 492.627273 630 
L 492.627273 576.310812 
L 477.409091 576.310812 
z
" style="fill:#008000;"/>
   </g>
   <g id="patch_24">
    <path clip-path="url(#pb36c989437)" d="M 492.627273 630 
L 507.845455 630 
L 507.845455 585.317348 
L 492.627273 585.317348 
z
" style="fill:#008000;"/>
   </g>
   <g id="patch_25">
    <path clip-path="url(#pb36c989437)" d="M 507.845455 630 
L 523.063636 630 
L 523.063636 590.938019 
L 507.845455 590.938019 
z
" style="fill:#008000;"/>
   </g>
   <g id="patch_26">
    <path clip-path="url(#pb36c989437)" d="M 523.063636 630 
L 538.281818 630 
L 538.281818 597.036616 
L 523.063636 597.036616 
z
" style="fill:#008000;"/>
   </g>
   <g id="patch_27">
    <path clip-path="url(#pb36c989437)" d="M 538.281818 630 
L 553.5 630 
L 553.5 599.762809 
L 538.281818 599.762809 
z
" style="fill:#008000;"/>
   </g>
   <g id="patch_28">
    <path clip-path="url(#pb36c989437)" d="M 553.5 630 
L 568.718182 630 
L 568.718182 602.731331 
L 553.5 602.731331 
z
" style="fill:#008000;"/>
   </g>
   <g id="patch_29">
    <path clip-path="url(#pb36c989437)" d="M 568.718182 630 
L 583.936364 630 
L 583.936364 603.316958 
L 568.718182 603.316958 
z
" style="fill:#008000;"/>
   </g>
   <g id="patch_30">
    <path clip-path="url(#pb36c989437)" d="M 583.936364 630 
L 599.154545 630 
L 599.154545 608.08948 
L 583.936364 608.08948 
z
" style="fill:#008000;"/>
   </g>
   <g id="patch_31">
    <path clip-path="url(#pb36c989437)" d="M 599.154545 630 
L 614.372727 630 
L 614.372727 612.074435 
L 599.154545 612.074435 
z
" style="fill:#008000;"/>
   </g>
   <g id="patch_32">
    <path clip-path="url(#pb36c989437)" d="M 614.372727 630 
L 629.590909 630 
L 629.590909 618.327852 
L 614.372727 618.327852 
z
" style="fill:#008000;"/>
   </g>
   <g id="patch_33">
    <path clip-path="url(#pb36c989437)" d="M 629.590909 630 
L 644.809091 630 
L 644.809091 620.609777 
L 629.590909 620.609777 
z
" style="fill:#008000;"/>
   </g>
   <g id="patch_34">
    <path clip-path="url(#pb36c989437)" d="M 644.809091 630 
L 660.027273 630 
L 660.027273 623.059986 
L 644.809091 623.059986 
z
" style="fill:#008000;"/>
   </g>
   <g id="patch_35">
    <path clip-path="url(#pb36c989437)" d="M 660.027273 630 
L 675.245455 630 
L 675.245455 624.924568 
L 660.027273 624.924568 
z
" style="fill:#008000;"/>
   </g>
   <g id="patch_36">
    <path clip-path="url(#pb36c989437)" d="M 675.245455 630 
L 690.463636 630 
L 690.463636 625.934269 
L 675.245455 625.934269 
z
" style="fill:#008000;"/>
   </g>
   <g id="patch_37">
    <path clip-path="url(#pb36c989437)" d="M 690.463636 630 
L 705.681818 630 
L 705.681818 626.94397 
L 690.463636 626.94397 
z
" style="fill:#008000;"/>
   </g>
   <g id="patch_38">
    <path clip-path="url(#pb36c989437)" d="M 705.681818 630 
L 720.9 630 
L 720.9 627.172836 
L 705.681818 627.172836 
z
" style="fill:#008000;"/>
   </g>
   <g id="patch_39">
    <path clip-path="url(#pb36c989437)" d="M 720.9 630 
L 736.118182 630 
L 736.118182 627.327657 
L 720.9 627.327657 
z
" style="fill:#008000;"/>
   </g>
   <g id="patch_40">
    <path clip-path="url(#pb36c989437)" d="M 736.118182 630 
L 751.336364 630 
L 751.336364 627.455553 
L 736.118182 627.455553 
z
" style="fill:#008000;"/>
   </g>
   <g id="patch_41">
    <path clip-path="url(#pb36c989437)" d="M 751.336364 630 
L 766.554545 630 
L 766.554545 627.549791 
L 751.336364 627.549791 
z
" style="fill:#008000;"/>
   </g>
   <g id="patch_42">
    <path clip-path="url(#pb36c989437)" d="M 766.554545 630 
L 781.772727 630 
L 781.772727 627.973866 
L 766.554545 627.973866 
z
" style="fill:#008000;"/>
   </g>
   <g id="patch_43">
    <path clip-path="url(#pb36c989437)" d="M 781.772727 630 
L 796.990909 630 
L 796.990909 628.478717 
L 781.772727 628.478717 
z
" style="fill:#008000;"/>
   </g>
   <g id="patch_44">
    <path clip-path="url(#pb36c989437)" d="M 796.990909 630 
L 812.209091 630 
L 812.209091 629.138388 
L 796.990909 629.138388 
z
" style="fill:#008000;"/>
   </g>
   <g id="patch_45">
    <path clip-path="url(#pb36c989437)" d="M 812.209091 630 
L 827.427273 630 
L 827.427273 629.232627 
L 812.209091 629.232627 
z
" style="fill:#008000;"/>
   </g>
   <g id="patch_46">
    <path clip-path="url(#pb36c989437)" d="M 827.427273 630 
L 842.645455 630 
L 842.645455 629.091269 
L 827.427273 629.091269 
z
" style="fill:#008000;"/>
   </g>
   <g id="patch_47">
    <path clip-path="url(#pb36c989437)" d="M 842.645455 630 
L 857.863636 630 
L 857.863636 629.326866 
L 842.645455 629.326866 
z
" style="fill:#008000;"/>
   </g>
   <g id="patch_48">
    <path clip-path="url(#pb36c989437)" d="M 857.863636 630 
L 873.081818 630 
L 873.081818 629.266284 
L 857.863636 629.266284 
z
" style="fill:#008000;"/>
   </g>
   <g id="patch_49">
    <path clip-path="url(#pb36c989437)" d="M 873.081818 630 
L 888.3 630 
L 888.3 629.414373 
L 873.081818 629.414373 
z
" style="fill:#008000;"/>
   </g>
   <g id="patch_50">
    <path clip-path="url(#pb36c989437)" d="M 888.3 630 
L 903.518182 630 
L 903.518182 629.488418 
L 888.3 629.488418 
z
" style="fill:#008000;"/>
   </g>
   <g id="patch_51">
    <path clip-path="url(#pb36c989437)" d="M 903.518182 630 
L 918.736364 630 
L 918.736364 629.495149 
L 903.518182 629.495149 
z
" style="fill:#008000;"/>
   </g>
   <g id="patch_52">
    <path clip-path="url(#pb36c989437)" d="M 918.736364 630 
L 933.954545 630 
L 933.954545 628.936448 
L 918.736364 628.936448 
z
" style="fill:#008000;"/>
   </g>
   <g id="patch_53">
    <path clip-path="url(#pb36c989437)" d="M 173.045455 630 
L 188.263636 630 
L 188.263636 630 
L 173.045455 630 
z
" style="fill:#ff0000;opacity:0.7;"/>
   </g>
   <g id="patch_54">
    <path clip-path="url(#pb36c989437)" d="M 188.263636 630 
L 203.481818 630 
L 203.481818 629.38322 
L 188.263636 629.38322 
z
" style="fill:#ff0000;opacity:0.7;"/>
   </g>
   <g id="patch_55">
    <path clip-path="url(#pb36c989437)" d="M 203.481818 630 
L 218.7 630 
L 218.7 629.329586 
L 203.481818 629.329586 
z
" style="fill:#ff0000;opacity:0.7;"/>
   </g>
   <g id="patch_56">
    <path clip-path="url(#pb36c989437)" d="M 218.7 630 
L 233.918182 630 
L 233.918182 593.288156 
L 218.7 593.288156 
z
" style="fill:#ff0000;opacity:0.7;"/>
   </g>
   <g id="patch_57">
    <path clip-path="url(#pb36c989437)" d="M 233.918182 630 
L 249.136364 630 
L 249.136364 523.779682 
L 233.918182 523.779682 
z
" style="fill:#ff0000;opacity:0.7;"/>
   </g>
   <g id="patch_58">
    <path clip-path="url(#pb36c989437)" d="M 249.136364 630 
L 264.354545 630 
L 264.354545 424.263499 
L 249.136364 424.263499 
z
" style="fill:#ff0000;opacity:0.7;"/>
   </g>
   <g id="patch_59">
    <path clip-path="url(#pb36c989437)" d="M 264.354545 630 
L 279.572727 630 
L 279.572727 292.594283 
L 264.354545 292.594283 
z
" style="fill:#ff0000;opacity:0.7;"/>
   </g>
   <g id="patch_60">
    <path clip-path="url(#pb36c989437)" d="M 279.572727 630 
L 294.790909 630 
L 294.790909 160.013306 
L 279.572727 160.013306 
z
" style="fill:#ff0000;opacity:0.7;"/>
   </g>
   <g id="patch_61">
    <path clip-path="url(#pb36c989437)" d="M 294.790909 630 
L 310.009091 630 
L 310.009091 113.379341 
L 294.790909 113.379341 
z
" style="fill:#ff0000;opacity:0.7;"/>
   </g>
   <g id="patch_62">
    <path clip-path="url(#pb36c989437)" d="M 310.009091 630 
L 325.227273 630 
L 325.227273 146.149154 
L 310.009091 146.149154 
z
" style="fill:#ff0000;opacity:0.7;"/>
   </g>
   <g id="patch_63">
    <path clip-path="url(#pb36c989437)" d="M 325.227273 630 
L 340.445455 630 
L 340.445455 210.723384 
L 325.227273 210.723384 
z
" style="fill:#ff0000;opacity:0.7;"/>
   </g>
   <g id="patch_64">
    <path clip-path="url(#pb36c989437)" d="M 340.445455 630 
L 355.663636 630 
L 355.663636 313.189387 
L 340.445455 313.189387 
z
" style="fill:#ff0000;opacity:0.7;"/>
   </g>
   <g id="patch_65">
    <path clip-path="url(#pb36c989437)" d="M 355.663636 630 
L 370.881818 630 
L 370.881818 379.131261 
L 355.663636 379.131261 
z
" style="fill:#ff0000;opacity:0.7;"/>
   </g>
   <g id="patch_66">
    <path clip-path="url(#pb36c989437)" d="M 370.881818 630 
L 386.1 630 
L 386.1 432.040296 
L 370.881818 432.040296 
z
" style="fill:#ff0000;opacity:0.7;"/>
   </g>
   <g id="patch_67">
    <path clip-path="url(#pb36c989437)" d="M 386.1 630 
L 401.318182 630 
L 401.318182 457.864624 
L 386.1 457.864624 
z
" style="fill:#ff0000;opacity:0.7;"/>
   </g>
   <g id="patch_68">
    <path clip-path="url(#pb36c989437)" d="M 401.318182 630 
L 416.536364 630 
L 416.536364 486.719222 
L 401.318182 486.719222 
z
" style="fill:#ff0000;opacity:0.7;"/>
   </g>
   <g id="patch_69">
    <path clip-path="url(#pb36c989437)" d="M 416.536364 630 
L 431.754545 630 
L 431.754545 512.7849 
L 416.536364 512.7849 
z
" style="fill:#ff0000;opacity:0.7;"/>
   </g>
   <g id="patch_70">
    <path clip-path="url(#pb36c989437)" d="M 431.754545 630 
L 446.972727 630 
L 446.972727 547.539137 
L 431.754545 547.539137 
z
" style="fill:#ff0000;opacity:0.7;"/>
   </g>
   <g id="patch_71">
    <path clip-path="url(#pb36c989437)" d="M 446.972727 630 
L 462.190909 630 
L 462.190909 556.656761 
L 446.972727 556.656761 
z
" style="fill:#ff0000;opacity:0.7;"/>
   </g>
   <g id="patch_72">
    <path clip-path="url(#pb36c989437)" d="M 462.190909 630 
L 477.409091 630 
L 477.409091 568.91192 
L 462.190909 568.91192 
z
" style="fill:#ff0000;opacity:0.7;"/>
   </g>
   <g id="patch_73">
    <path clip-path="url(#pb36c989437)" d="M 477.409091 630 
L 492.627273 630 
L 492.627273 577.251864 
L 477.409091 577.251864 
z
" style="fill:#ff0000;opacity:0.7;"/>
   </g>
   <g id="patch_74">
    <path clip-path="url(#pb36c989437)" d="M 492.627273 630 
L 507.845455 630 
L 507.845455 585.779524 
L 492.627273 585.779524 
z
" style="fill:#ff0000;opacity:0.7;"/>
   </g>
   <g id="patch_75">
    <path clip-path="url(#pb36c989437)" d="M 507.845455 630 
L 523.063636 630 
L 523.063636 591.598714 
L 507.845455 591.598714 
z
" style="fill:#ff0000;opacity:0.7;"/>
   </g>
   <g id="patch_76">
    <path clip-path="url(#pb36c989437)" d="M 523.063636 630 
L 538.281818 630 
L 538.281818 598.007867 
L 523.063636 598.007867 
z
" style="fill:#ff0000;opacity:0.7;"/>
   </g>
   <g id="patch_77">
    <path clip-path="url(#pb36c989437)" d="M 538.281818 630 
L 553.5 630 
L 553.5 599.777758 
L 538.281818 599.777758 
z
" style="fill:#ff0000;opacity:0.7;"/>
   </g>
   <g id="patch_78">
    <path clip-path="url(#pb36c989437)" d="M 553.5 630 
L 568.718182 630 
L 568.718182 603.156643 
L 553.5 603.156643 
z
" style="fill:#ff0000;opacity:0.7;"/>
   </g>
   <g id="patch_79">
    <path clip-path="url(#pb36c989437)" d="M 568.718182 630 
L 583.936364 630 
L 583.936364 601.708549 
L 568.718182 601.708549 
z
" style="fill:#ff0000;opacity:0.7;"/>
   </g>
   <g id="patch_80">
    <path clip-path="url(#pb36c989437)" d="M 583.936364 630 
L 599.154545 630 
L 599.154545 608.573584 
L 583.936364 608.573584 
z
" style="fill:#ff0000;opacity:0.7;"/>
   </g>
   <g id="patch_81">
    <path clip-path="url(#pb36c989437)" d="M 599.154545 630 
L 614.372727 630 
L 614.372727 611.898835 
L 599.154545 611.898835 
z
" style="fill:#ff0000;opacity:0.7;"/>
   </g>
   <g id="patch_82">
    <path clip-path="url(#pb36c989437)" d="M 614.372727 630 
L 629.590909 630 
L 629.590909 618.281172 
L 614.372727 618.281172 
z
" style="fill:#ff0000;opacity:0.7;"/>
   </g>
   <g id="patch_83">
    <path clip-path="url(#pb36c989437)" d="M 629.590909 630 
L 644.809091 630 
L 644.809091 620.319229 
L 629.590909 620.319229 
z
" style="fill:#ff0000;opacity:0.7;"/>
   </g>
   <g id="patch_84">
    <path clip-path="url(#pb36c989437)" d="M 644.809091 630 
L 660.027273 630 
L 660.027273 623.000883 
L 644.809091 623.000883 
z
" style="fill:#ff0000;opacity:0.7;"/>
   </g>
   <g id="patch_85">
    <path clip-path="url(#pb36c989437)" d="M 660.027273 630 
L 675.245455 630 
L 675.245455 624.931674 
L 660.027273 624.931674 
z
" style="fill:#ff0000;opacity:0.7;"/>
   </g>
   <g id="patch_86">
    <path clip-path="url(#pb36c989437)" d="M 675.245455 630 
L 690.463636 630 
L 690.463636 625.789803 
L 675.245455 625.789803 
z
" style="fill:#ff0000;opacity:0.7;"/>
   </g>
   <g id="patch_87">
    <path clip-path="url(#pb36c989437)" d="M 690.463636 630 
L 705.681818 630 
L 705.681818 626.379767 
L 690.463636 626.379767 
z
" style="fill:#ff0000;opacity:0.7;"/>
   </g>
   <g id="patch_88">
    <path clip-path="url(#pb36c989437)" d="M 705.681818 630 
L 720.9 630 
L 720.9 626.889281 
L 705.681818 626.889281 
z
" style="fill:#ff0000;opacity:0.7;"/>
   </g>
   <g id="patch_89">
    <path clip-path="url(#pb36c989437)" d="M 720.9 630 
L 736.118182 630 
L 736.118182 627.666961 
L 720.9 627.666961 
z
" style="fill:#ff0000;opacity:0.7;"/>
   </g>
   <g id="patch_90">
    <path clip-path="url(#pb36c989437)" d="M 736.118182 630 
L 751.336364 630 
L 751.336364 627.479245 
L 736.118182 627.479245 
z
" style="fill:#ff0000;opacity:0.7;"/>
   </g>
   <g id="patch_91">
    <path clip-path="url(#pb36c989437)" d="M 751.336364 630 
L 766.554545 630 
L 766.554545 628.122842 
L 751.336364 628.122842 
z
" style="fill:#ff0000;opacity:0.7;"/>
   </g>
   <g id="patch_92">
    <path clip-path="url(#pb36c989437)" d="M 766.554545 630 
L 781.772727 630 
L 781.772727 627.720594 
L 766.554545 627.720594 
z
" style="fill:#ff0000;opacity:0.7;"/>
   </g>
   <g id="patch_93">
    <path clip-path="url(#pb36c989437)" d="M 781.772727 630 
L 796.990909 630 
L 796.990909 628.444641 
L 781.772727 628.444641 
z
" style="fill:#ff0000;opacity:0.7;"/>
   </g>
   <g id="patch_94">
    <path clip-path="url(#pb36c989437)" d="M 796.990909 630 
L 812.209091 630 
L 812.209091 629.195504 
L 796.990909 629.195504 
z
" style="fill:#ff0000;opacity:0.7;"/>
   </g>
   <g id="patch_95">
    <path clip-path="url(#pb36c989437)" d="M 812.209091 630 
L 827.427273 630 
L 827.427273 629.168687 
L 812.209091 629.168687 
z
" style="fill:#ff0000;opacity:0.7;"/>
   </g>
   <g id="patch_96">
    <path clip-path="url(#pb36c989437)" d="M 827.427273 630 
L 842.645455 630 
L 842.645455 629.168687 
L 827.427273 629.168687 
z
" style="fill:#ff0000;opacity:0.7;"/>
   </g>
   <g id="patch_97">
    <path clip-path="url(#pb36c989437)" d="M 842.645455 630 
L 857.863636 630 
L 857.863636 629.490486 
L 842.645455 629.490486 
z
" style="fill:#ff0000;opacity:0.7;"/>
   </g>
   <g id="patch_98">
    <path clip-path="url(#pb36c989437)" d="M 857.863636 630 
L 873.081818 630 
L 873.081818 629.356403 
L 857.863636 629.356403 
z
" style="fill:#ff0000;opacity:0.7;"/>
   </g>
   <g id="patch_99">
    <path clip-path="url(#pb36c989437)" d="M 873.081818 630 
L 888.3 630 
L 888.3 629.410036 
L 873.081818 629.410036 
z
" style="fill:#ff0000;opacity:0.7;"/>
   </g>
   <g id="patch_100">
    <path clip-path="url(#pb36c989437)" d="M 888.3 630 
L 903.518182 630 
L 903.518182 629.463669 
L 888.3 629.463669 
z
" style="fill:#ff0000;opacity:0.7;"/>
   </g>
   <g id="patch_101">
    <path clip-path="url(#pb36c989437)" d="M 903.518182 630 
L 918.736364 630 
L 918.736364 629.570935 
L 903.518182 629.570935 
z
" style="fill:#ff0000;opacity:0.7;"/>
   </g>
   <g id="patch_102">
    <path clip-path="url(#pb36c989437)" d="M 918.736364 630 
L 933.954545 630 
L 933.954545 628.954155 
L 918.736364 628.954155 
z
" style="fill:#ff0000;opacity:0.7;"/>
   </g>
   <g id="matplotlib.axis_1">
    <g id="xtick_1">
     <g id="line2d_1">
      <defs>
       <path d="M 0 0 
L 0 3.5 
" id="m693cd5eab0" style="stroke:#000000;stroke-width:0.8;"/>
      </defs>
      <g>
       <use style="stroke:#000000;stroke-width:0.8;" x="173.045455" xlink:href="#m693cd5eab0" y="630"/>
      </g>
     </g>
     <g id="text_1">
      <!-- 0 -->
      <defs>
       <path d="M 31.78125 66.40625 
Q 24.171875 66.40625 20.328125 58.90625 
Q 16.5 51.421875 16.5 36.375 
Q 16.5 21.390625 20.328125 13.890625 
Q 24.171875 6.390625 31.78125 6.390625 
Q 39.453125 6.390625 43.28125 13.890625 
Q 47.125 21.390625 47.125 36.375 
Q 47.125 51.421875 43.28125 58.90625 
Q 39.453125 66.40625 31.78125 66.40625 
z
M 31.78125 74.21875 
Q 44.046875 74.21875 50.515625 64.515625 
Q 56.984375 54.828125 56.984375 36.375 
Q 56.984375 17.96875 50.515625 8.265625 
Q 44.046875 -1.421875 31.78125 -1.421875 
Q 19.53125 -1.421875 13.0625 8.265625 
Q 6.59375 17.96875 6.59375 36.375 
Q 6.59375 54.828125 13.0625 64.515625 
Q 19.53125 74.21875 31.78125 74.21875 
z
" id="DejaVuSans-30"/>
      </defs>
      <g transform="translate(169.864205 644.598438)scale(0.1 -0.1)">
       <use xlink:href="#DejaVuSans-30"/>
      </g>
     </g>
    </g>
    <g id="xtick_2">
     <g id="line2d_2">
      <g>
       <use style="stroke:#000000;stroke-width:0.8;" x="325.227273" xlink:href="#m693cd5eab0" y="630"/>
      </g>
     </g>
     <g id="text_2">
      <!-- 10 -->
      <defs>
       <path d="M 12.40625 8.296875 
L 28.515625 8.296875 
L 28.515625 63.921875 
L 10.984375 60.40625 
L 10.984375 69.390625 
L 28.421875 72.90625 
L 38.28125 72.90625 
L 38.28125 8.296875 
L 54.390625 8.296875 
L 54.390625 0 
L 12.40625 0 
z
" id="DejaVuSans-31"/>
      </defs>
      <g transform="translate(318.864773 644.598438)scale(0.1 -0.1)">
       <use xlink:href="#DejaVuSans-31"/>
       <use x="63.623047" xlink:href="#DejaVuSans-30"/>
      </g>
     </g>
    </g>
    <g id="xtick_3">
     <g id="line2d_3">
      <g>
       <use style="stroke:#000000;stroke-width:0.8;" x="477.409091" xlink:href="#m693cd5eab0" y="630"/>
      </g>
     </g>
     <g id="text_3">
      <!-- 20 -->
      <defs>
       <path d="M 19.1875 8.296875 
L 53.609375 8.296875 
L 53.609375 0 
L 7.328125 0 
L 7.328125 8.296875 
Q 12.9375 14.109375 22.625 23.890625 
Q 32.328125 33.6875 34.8125 36.53125 
Q 39.546875 41.84375 41.421875 45.53125 
Q 43.3125 49.21875 43.3125 52.78125 
Q 43.3125 58.59375 39.234375 62.25 
Q 35.15625 65.921875 28.609375 65.921875 
Q 23.96875 65.921875 18.8125 64.3125 
Q 13.671875 62.703125 7.8125 59.421875 
L 7.8125 69.390625 
Q 13.765625 71.78125 18.9375 73 
Q 24.125 74.21875 28.421875 74.21875 
Q 39.75 74.21875 46.484375 68.546875 
Q 53.21875 62.890625 53.21875 53.421875 
Q 53.21875 48.921875 51.53125 44.890625 
Q 49.859375 40.875 45.40625 35.40625 
Q 44.1875 33.984375 37.640625 27.21875 
Q 31.109375 20.453125 19.1875 8.296875 
z
" id="DejaVuSans-32"/>
      </defs>
      <g transform="translate(471.046591 644.598438)scale(0.1 -0.1)">
       <use xlink:href="#DejaVuSans-32"/>
       <use x="63.623047" xlink:href="#DejaVuSans-30"/>
      </g>
     </g>
    </g>
    <g id="xtick_4">
     <g id="line2d_4">
      <g>
       <use style="stroke:#000000;stroke-width:0.8;" x="629.590909" xlink:href="#m693cd5eab0" y="630"/>
      </g>
     </g>
     <g id="text_4">
      <!-- 30 -->
      <defs>
       <path d="M 40.578125 39.3125 
Q 47.65625 37.796875 51.625 33 
Q 55.609375 28.21875 55.609375 21.1875 
Q 55.609375 10.40625 48.1875 4.484375 
Q 40.765625 -1.421875 27.09375 -1.421875 
Q 22.515625 -1.421875 17.65625 -0.515625 
Q 12.796875 0.390625 7.625 2.203125 
L 7.625 11.71875 
Q 11.71875 9.328125 16.59375 8.109375 
Q 21.484375 6.890625 26.8125 6.890625 
Q 36.078125 6.890625 40.9375 10.546875 
Q 45.796875 14.203125 45.796875 21.1875 
Q 45.796875 27.640625 41.28125 31.265625 
Q 36.765625 34.90625 28.71875 34.90625 
L 20.21875 34.90625 
L 20.21875 43.015625 
L 29.109375 43.015625 
Q 36.375 43.015625 40.234375 45.921875 
Q 44.09375 48.828125 44.09375 54.296875 
Q 44.09375 59.90625 40.109375 62.90625 
Q 36.140625 65.921875 28.71875 65.921875 
Q 24.65625 65.921875 20.015625 65.03125 
Q 15.375 64.15625 9.8125 62.3125 
L 9.8125 71.09375 
Q 15.4375 72.65625 20.34375 73.4375 
Q 25.25 74.21875 29.59375 74.21875 
Q 40.828125 74.21875 47.359375 69.109375 
Q 53.90625 64.015625 53.90625 55.328125 
Q 53.90625 49.265625 50.4375 45.09375 
Q 46.96875 40.921875 40.578125 39.3125 
z
" id="DejaVuSans-33"/>
      </defs>
      <g transform="translate(623.228409 644.598438)scale(0.1 -0.1)">
       <use xlink:href="#DejaVuSans-33"/>
       <use x="63.623047" xlink:href="#DejaVuSans-30"/>
      </g>
     </g>
    </g>
    <g id="xtick_5">
     <g id="line2d_5">
      <g>
       <use style="stroke:#000000;stroke-width:0.8;" x="781.772727" xlink:href="#m693cd5eab0" y="630"/>
      </g>
     </g>
     <g id="text_5">
      <!-- 40 -->
      <defs>
       <path d="M 37.796875 64.3125 
L 12.890625 25.390625 
L 37.796875 25.390625 
z
M 35.203125 72.90625 
L 47.609375 72.90625 
L 47.609375 25.390625 
L 58.015625 25.390625 
L 58.015625 17.1875 
L 47.609375 17.1875 
L 47.609375 0 
L 37.796875 0 
L 37.796875 17.1875 
L 4.890625 17.1875 
L 4.890625 26.703125 
z
" id="DejaVuSans-34"/>
      </defs>
      <g transform="translate(775.410227 644.598438)scale(0.1 -0.1)">
       <use xlink:href="#DejaVuSans-34"/>
       <use x="63.623047" xlink:href="#DejaVuSans-30"/>
      </g>
     </g>
    </g>
    <g id="xtick_6">
     <g id="line2d_6">
      <g>
       <use style="stroke:#000000;stroke-width:0.8;" x="933.954545" xlink:href="#m693cd5eab0" y="630"/>
      </g>
     </g>
     <g id="text_6">
      <!-- 50 -->
      <defs>
       <path d="M 10.796875 72.90625 
L 49.515625 72.90625 
L 49.515625 64.59375 
L 19.828125 64.59375 
L 19.828125 46.734375 
Q 21.96875 47.46875 24.109375 47.828125 
Q 26.265625 48.1875 28.421875 48.1875 
Q 40.625 48.1875 47.75 41.5 
Q 54.890625 34.8125 54.890625 23.390625 
Q 54.890625 11.625 47.5625 5.09375 
Q 40.234375 -1.421875 26.90625 -1.421875 
Q 22.3125 -1.421875 17.546875 -0.640625 
Q 12.796875 0.140625 7.71875 1.703125 
L 7.71875 11.625 
Q 12.109375 9.234375 16.796875 8.0625 
Q 21.484375 6.890625 26.703125 6.890625 
Q 35.15625 6.890625 40.078125 11.328125 
Q 45.015625 15.765625 45.015625 23.390625 
Q 45.015625 31 40.078125 35.4375 
Q 35.15625 39.890625 26.703125 39.890625 
Q 22.75 39.890625 18.8125 39.015625 
Q 14.890625 38.140625 10.796875 36.28125 
z
" id="DejaVuSans-35"/>
      </defs>
      <g transform="translate(927.592045 644.598438)scale(0.1 -0.1)">
       <use xlink:href="#DejaVuSans-35"/>
       <use x="63.623047" xlink:href="#DejaVuSans-30"/>
      </g>
     </g>
    </g>
    <g id="text_7">
     <!-- Words per question -->
     <defs>
      <path d="M 3.328125 72.90625 
L 13.28125 72.90625 
L 28.609375 11.28125 
L 43.890625 72.90625 
L 54.984375 72.90625 
L 70.3125 11.28125 
L 85.59375 72.90625 
L 95.609375 72.90625 
L 77.296875 0 
L 64.890625 0 
L 49.515625 63.28125 
L 33.984375 0 
L 21.578125 0 
z
" id="DejaVuSans-57"/>
      <path d="M 30.609375 48.390625 
Q 23.390625 48.390625 19.1875 42.75 
Q 14.984375 37.109375 14.984375 27.296875 
Q 14.984375 17.484375 19.15625 11.84375 
Q 23.34375 6.203125 30.609375 6.203125 
Q 37.796875 6.203125 41.984375 11.859375 
Q 46.1875 17.53125 46.1875 27.296875 
Q 46.1875 37.015625 41.984375 42.703125 
Q 37.796875 48.390625 30.609375 48.390625 
z
M 30.609375 56 
Q 42.328125 56 49.015625 48.375 
Q 55.71875 40.765625 55.71875 27.296875 
Q 55.71875 13.875 49.015625 6.21875 
Q 42.328125 -1.421875 30.609375 -1.421875 
Q 18.84375 -1.421875 12.171875 6.21875 
Q 5.515625 13.875 5.515625 27.296875 
Q 5.515625 40.765625 12.171875 48.375 
Q 18.84375 56 30.609375 56 
z
" id="DejaVuSans-6f"/>
      <path d="M 41.109375 46.296875 
Q 39.59375 47.171875 37.8125 47.578125 
Q 36.03125 48 33.890625 48 
Q 26.265625 48 22.1875 43.046875 
Q 18.109375 38.09375 18.109375 28.8125 
L 18.109375 0 
L 9.078125 0 
L 9.078125 54.6875 
L 18.109375 54.6875 
L 18.109375 46.1875 
Q 20.953125 51.171875 25.484375 53.578125 
Q 30.03125 56 36.53125 56 
Q 37.453125 56 38.578125 55.875 
Q 39.703125 55.765625 41.0625 55.515625 
z
" id="DejaVuSans-72"/>
      <path d="M 45.40625 46.390625 
L 45.40625 75.984375 
L 54.390625 75.984375 
L 54.390625 0 
L 45.40625 0 
L 45.40625 8.203125 
Q 42.578125 3.328125 38.25 0.953125 
Q 33.9375 -1.421875 27.875 -1.421875 
Q 17.96875 -1.421875 11.734375 6.484375 
Q 5.515625 14.40625 5.515625 27.296875 
Q 5.515625 40.1875 11.734375 48.09375 
Q 17.96875 56 27.875 56 
Q 33.9375 56 38.25 53.625 
Q 42.578125 51.265625 45.40625 46.390625 
z
M 14.796875 27.296875 
Q 14.796875 17.390625 18.875 11.75 
Q 22.953125 6.109375 30.078125 6.109375 
Q 37.203125 6.109375 41.296875 11.75 
Q 45.40625 17.390625 45.40625 27.296875 
Q 45.40625 37.203125 41.296875 42.84375 
Q 37.203125 48.484375 30.078125 48.484375 
Q 22.953125 48.484375 18.875 42.84375 
Q 14.796875 37.203125 14.796875 27.296875 
z
" id="DejaVuSans-64"/>
      <path d="M 44.28125 53.078125 
L 44.28125 44.578125 
Q 40.484375 46.53125 36.375 47.5 
Q 32.28125 48.484375 27.875 48.484375 
Q 21.1875 48.484375 17.84375 46.4375 
Q 14.5 44.390625 14.5 40.28125 
Q 14.5 37.15625 16.890625 35.375 
Q 19.28125 33.59375 26.515625 31.984375 
L 29.59375 31.296875 
Q 39.15625 29.25 43.1875 25.515625 
Q 47.21875 21.78125 47.21875 15.09375 
Q 47.21875 7.46875 41.1875 3.015625 
Q 35.15625 -1.421875 24.609375 -1.421875 
Q 20.21875 -1.421875 15.453125 -0.5625 
Q 10.6875 0.296875 5.421875 2 
L 5.421875 11.28125 
Q 10.40625 8.6875 15.234375 7.390625 
Q 20.0625 6.109375 24.8125 6.109375 
Q 31.15625 6.109375 34.5625 8.28125 
Q 37.984375 10.453125 37.984375 14.40625 
Q 37.984375 18.0625 35.515625 20.015625 
Q 33.0625 21.96875 24.703125 23.78125 
L 21.578125 24.515625 
Q 13.234375 26.265625 9.515625 29.90625 
Q 5.8125 33.546875 5.8125 39.890625 
Q 5.8125 47.609375 11.28125 51.796875 
Q 16.75 56 26.8125 56 
Q 31.78125 56 36.171875 55.265625 
Q 40.578125 54.546875 44.28125 53.078125 
z
" id="DejaVuSans-73"/>
      <path id="DejaVuSans-20"/>
      <path d="M 18.109375 8.203125 
L 18.109375 -20.796875 
L 9.078125 -20.796875 
L 9.078125 54.6875 
L 18.109375 54.6875 
L 18.109375 46.390625 
Q 20.953125 51.265625 25.265625 53.625 
Q 29.59375 56 35.59375 56 
Q 45.5625 56 51.78125 48.09375 
Q 58.015625 40.1875 58.015625 27.296875 
Q 58.015625 14.40625 51.78125 6.484375 
Q 45.5625 -1.421875 35.59375 -1.421875 
Q 29.59375 -1.421875 25.265625 0.953125 
Q 20.953125 3.328125 18.109375 8.203125 
z
M 48.6875 27.296875 
Q 48.6875 37.203125 44.609375 42.84375 
Q 40.53125 48.484375 33.40625 48.484375 
Q 26.265625 48.484375 22.1875 42.84375 
Q 18.109375 37.203125 18.109375 27.296875 
Q 18.109375 17.390625 22.1875 11.75 
Q 26.265625 6.109375 33.40625 6.109375 
Q 40.53125 6.109375 44.609375 11.75 
Q 48.6875 17.390625 48.6875 27.296875 
z
" id="DejaVuSans-70"/>
      <path d="M 56.203125 29.59375 
L 56.203125 25.203125 
L 14.890625 25.203125 
Q 15.484375 15.921875 20.484375 11.0625 
Q 25.484375 6.203125 34.421875 6.203125 
Q 39.59375 6.203125 44.453125 7.46875 
Q 49.3125 8.734375 54.109375 11.28125 
L 54.109375 2.78125 
Q 49.265625 0.734375 44.1875 -0.34375 
Q 39.109375 -1.421875 33.890625 -1.421875 
Q 20.796875 -1.421875 13.15625 6.1875 
Q 5.515625 13.8125 5.515625 26.8125 
Q 5.515625 40.234375 12.765625 48.109375 
Q 20.015625 56 32.328125 56 
Q 43.359375 56 49.78125 48.890625 
Q 56.203125 41.796875 56.203125 29.59375 
z
M 47.21875 32.234375 
Q 47.125 39.59375 43.09375 43.984375 
Q 39.0625 48.390625 32.421875 48.390625 
Q 24.90625 48.390625 20.390625 44.140625 
Q 15.875 39.890625 15.1875 32.171875 
z
" id="DejaVuSans-65"/>
      <path d="M 14.796875 27.296875 
Q 14.796875 17.390625 18.875 11.75 
Q 22.953125 6.109375 30.078125 6.109375 
Q 37.203125 6.109375 41.296875 11.75 
Q 45.40625 17.390625 45.40625 27.296875 
Q 45.40625 37.203125 41.296875 42.84375 
Q 37.203125 48.484375 30.078125 48.484375 
Q 22.953125 48.484375 18.875 42.84375 
Q 14.796875 37.203125 14.796875 27.296875 
z
M 45.40625 8.203125 
Q 42.578125 3.328125 38.25 0.953125 
Q 33.9375 -1.421875 27.875 -1.421875 
Q 17.96875 -1.421875 11.734375 6.484375 
Q 5.515625 14.40625 5.515625 27.296875 
Q 5.515625 40.1875 11.734375 48.09375 
Q 17.96875 56 27.875 56 
Q 33.9375 56 38.25 53.625 
Q 42.578125 51.265625 45.40625 46.390625 
L 45.40625 54.6875 
L 54.390625 54.6875 
L 54.390625 -20.796875 
L 45.40625 -20.796875 
z
" id="DejaVuSans-71"/>
      <path d="M 8.5 21.578125 
L 8.5 54.6875 
L 17.484375 54.6875 
L 17.484375 21.921875 
Q 17.484375 14.15625 20.5 10.265625 
Q 23.53125 6.390625 29.59375 6.390625 
Q 36.859375 6.390625 41.078125 11.03125 
Q 45.3125 15.671875 45.3125 23.6875 
L 45.3125 54.6875 
L 54.296875 54.6875 
L 54.296875 0 
L 45.3125 0 
L 45.3125 8.40625 
Q 42.046875 3.421875 37.71875 1 
Q 33.40625 -1.421875 27.6875 -1.421875 
Q 18.265625 -1.421875 13.375 4.4375 
Q 8.5 10.296875 8.5 21.578125 
z
M 31.109375 56 
z
" id="DejaVuSans-75"/>
      <path d="M 18.3125 70.21875 
L 18.3125 54.6875 
L 36.8125 54.6875 
L 36.8125 47.703125 
L 18.3125 47.703125 
L 18.3125 18.015625 
Q 18.3125 11.328125 20.140625 9.421875 
Q 21.96875 7.515625 27.59375 7.515625 
L 36.8125 7.515625 
L 36.8125 0 
L 27.59375 0 
Q 17.1875 0 13.234375 3.875 
Q 9.28125 7.765625 9.28125 18.015625 
L 9.28125 47.703125 
L 2.6875 47.703125 
L 2.6875 54.6875 
L 9.28125 54.6875 
L 9.28125 70.21875 
z
" id="DejaVuSans-74"/>
      <path d="M 9.421875 54.6875 
L 18.40625 54.6875 
L 18.40625 0 
L 9.421875 0 
z
M 9.421875 75.984375 
L 18.40625 75.984375 
L 18.40625 64.59375 
L 9.421875 64.59375 
z
" id="DejaVuSans-69"/>
      <path d="M 54.890625 33.015625 
L 54.890625 0 
L 45.90625 0 
L 45.90625 32.71875 
Q 45.90625 40.484375 42.875 44.328125 
Q 39.84375 48.1875 33.796875 48.1875 
Q 26.515625 48.1875 22.3125 43.546875 
Q 18.109375 38.921875 18.109375 30.90625 
L 18.109375 0 
L 9.078125 0 
L 9.078125 54.6875 
L 18.109375 54.6875 
L 18.109375 46.1875 
Q 21.34375 51.125 25.703125 53.5625 
Q 30.078125 56 35.796875 56 
Q 45.21875 56 50.046875 50.171875 
Q 54.890625 44.34375 54.890625 33.015625 
z
" id="DejaVuSans-6e"/>
     </defs>
     <g transform="translate(480.121875 662.075781)scale(0.15 -0.15)">
      <use xlink:href="#DejaVuSans-57"/>
      <use x="98.798828" xlink:href="#DejaVuSans-6f"/>
      <use x="159.980469" xlink:href="#DejaVuSans-72"/>
      <use x="201.078125" xlink:href="#DejaVuSans-64"/>
      <use x="264.554688" xlink:href="#DejaVuSans-73"/>
      <use x="316.654297" xlink:href="#DejaVuSans-20"/>
      <use x="348.441406" xlink:href="#DejaVuSans-70"/>
      <use x="411.917969" xlink:href="#DejaVuSans-65"/>
      <use x="473.441406" xlink:href="#DejaVuSans-72"/>
      <use x="514.554688" xlink:href="#DejaVuSans-20"/>
      <use x="546.341797" xlink:href="#DejaVuSans-71"/>
      <use x="609.818359" xlink:href="#DejaVuSans-75"/>
      <use x="673.197266" xlink:href="#DejaVuSans-65"/>
      <use x="734.720703" xlink:href="#DejaVuSans-73"/>
      <use x="786.820312" xlink:href="#DejaVuSans-74"/>
      <use x="826.029297" xlink:href="#DejaVuSans-69"/>
      <use x="853.8125" xlink:href="#DejaVuSans-6f"/>
      <use x="914.994141" xlink:href="#DejaVuSans-6e"/>
     </g>
    </g>
   </g>
   <g id="matplotlib.axis_2">
    <g id="ytick_1">
     <g id="line2d_7">
      <defs>
       <path d="M 0 0 
L -3.5 0 
" id="mcf175595d0" style="stroke:#000000;stroke-width:0.8;"/>
      </defs>
      <g>
       <use style="stroke:#000000;stroke-width:0.8;" x="135" xlink:href="#mcf175595d0" y="630"/>
      </g>
     </g>
     <g id="text_8">
      <!-- 0.00 -->
      <defs>
       <path d="M 10.6875 12.40625 
L 21 12.40625 
L 21 0 
L 10.6875 0 
z
" id="DejaVuSans-2e"/>
      </defs>
      <g transform="translate(105.734375 633.799219)scale(0.1 -0.1)">
       <use xlink:href="#DejaVuSans-30"/>
       <use x="63.623047" xlink:href="#DejaVuSans-2e"/>
       <use x="95.410156" xlink:href="#DejaVuSans-30"/>
       <use x="159.033203" xlink:href="#DejaVuSans-30"/>
      </g>
     </g>
    </g>
    <g id="ytick_2">
     <g id="line2d_8">
      <g>
       <use style="stroke:#000000;stroke-width:0.8;" x="135" xlink:href="#mcf175595d0" y="543.085982"/>
      </g>
     </g>
     <g id="text_9">
      <!-- 0.02 -->
      <g transform="translate(105.734375 546.885201)scale(0.1 -0.1)">
       <use xlink:href="#DejaVuSans-30"/>
       <use x="63.623047" xlink:href="#DejaVuSans-2e"/>
       <use x="95.410156" xlink:href="#DejaVuSans-30"/>
       <use x="159.033203" xlink:href="#DejaVuSans-32"/>
      </g>
     </g>
    </g>
    <g id="ytick_3">
     <g id="line2d_9">
      <g>
       <use style="stroke:#000000;stroke-width:0.8;" x="135" xlink:href="#mcf175595d0" y="456.171964"/>
      </g>
     </g>
     <g id="text_10">
      <!-- 0.04 -->
      <g transform="translate(105.734375 459.971183)scale(0.1 -0.1)">
       <use xlink:href="#DejaVuSans-30"/>
       <use x="63.623047" xlink:href="#DejaVuSans-2e"/>
       <use x="95.410156" xlink:href="#DejaVuSans-30"/>
       <use x="159.033203" xlink:href="#DejaVuSans-34"/>
      </g>
     </g>
    </g>
    <g id="ytick_4">
     <g id="line2d_10">
      <g>
       <use style="stroke:#000000;stroke-width:0.8;" x="135" xlink:href="#mcf175595d0" y="369.257947"/>
      </g>
     </g>
     <g id="text_11">
      <!-- 0.06 -->
      <defs>
       <path d="M 33.015625 40.375 
Q 26.375 40.375 22.484375 35.828125 
Q 18.609375 31.296875 18.609375 23.390625 
Q 18.609375 15.53125 22.484375 10.953125 
Q 26.375 6.390625 33.015625 6.390625 
Q 39.65625 6.390625 43.53125 10.953125 
Q 47.40625 15.53125 47.40625 23.390625 
Q 47.40625 31.296875 43.53125 35.828125 
Q 39.65625 40.375 33.015625 40.375 
z
M 52.59375 71.296875 
L 52.59375 62.3125 
Q 48.875 64.0625 45.09375 64.984375 
Q 41.3125 65.921875 37.59375 65.921875 
Q 27.828125 65.921875 22.671875 59.328125 
Q 17.53125 52.734375 16.796875 39.40625 
Q 19.671875 43.65625 24.015625 45.921875 
Q 28.375 48.1875 33.59375 48.1875 
Q 44.578125 48.1875 50.953125 41.515625 
Q 57.328125 34.859375 57.328125 23.390625 
Q 57.328125 12.15625 50.6875 5.359375 
Q 44.046875 -1.421875 33.015625 -1.421875 
Q 20.359375 -1.421875 13.671875 8.265625 
Q 6.984375 17.96875 6.984375 36.375 
Q 6.984375 53.65625 15.1875 63.9375 
Q 23.390625 74.21875 37.203125 74.21875 
Q 40.921875 74.21875 44.703125 73.484375 
Q 48.484375 72.75 52.59375 71.296875 
z
" id="DejaVuSans-36"/>
      </defs>
      <g transform="translate(105.734375 373.057165)scale(0.1 -0.1)">
       <use xlink:href="#DejaVuSans-30"/>
       <use x="63.623047" xlink:href="#DejaVuSans-2e"/>
       <use x="95.410156" xlink:href="#DejaVuSans-30"/>
       <use x="159.033203" xlink:href="#DejaVuSans-36"/>
      </g>
     </g>
    </g>
    <g id="ytick_5">
     <g id="line2d_11">
      <g>
       <use style="stroke:#000000;stroke-width:0.8;" x="135" xlink:href="#mcf175595d0" y="282.343929"/>
      </g>
     </g>
     <g id="text_12">
      <!-- 0.08 -->
      <defs>
       <path d="M 31.78125 34.625 
Q 24.75 34.625 20.71875 30.859375 
Q 16.703125 27.09375 16.703125 20.515625 
Q 16.703125 13.921875 20.71875 10.15625 
Q 24.75 6.390625 31.78125 6.390625 
Q 38.8125 6.390625 42.859375 10.171875 
Q 46.921875 13.96875 46.921875 20.515625 
Q 46.921875 27.09375 42.890625 30.859375 
Q 38.875 34.625 31.78125 34.625 
z
M 21.921875 38.8125 
Q 15.578125 40.375 12.03125 44.71875 
Q 8.5 49.078125 8.5 55.328125 
Q 8.5 64.0625 14.71875 69.140625 
Q 20.953125 74.21875 31.78125 74.21875 
Q 42.671875 74.21875 48.875 69.140625 
Q 55.078125 64.0625 55.078125 55.328125 
Q 55.078125 49.078125 51.53125 44.71875 
Q 48 40.375 41.703125 38.8125 
Q 48.828125 37.15625 52.796875 32.3125 
Q 56.78125 27.484375 56.78125 20.515625 
Q 56.78125 9.90625 50.3125 4.234375 
Q 43.84375 -1.421875 31.78125 -1.421875 
Q 19.734375 -1.421875 13.25 4.234375 
Q 6.78125 9.90625 6.78125 20.515625 
Q 6.78125 27.484375 10.78125 32.3125 
Q 14.796875 37.15625 21.921875 38.8125 
z
M 18.3125 54.390625 
Q 18.3125 48.734375 21.84375 45.5625 
Q 25.390625 42.390625 31.78125 42.390625 
Q 38.140625 42.390625 41.71875 45.5625 
Q 45.3125 48.734375 45.3125 54.390625 
Q 45.3125 60.0625 41.71875 63.234375 
Q 38.140625 66.40625 31.78125 66.40625 
Q 25.390625 66.40625 21.84375 63.234375 
Q 18.3125 60.0625 18.3125 54.390625 
z
" id="DejaVuSans-38"/>
      </defs>
      <g transform="translate(105.734375 286.143148)scale(0.1 -0.1)">
       <use xlink:href="#DejaVuSans-30"/>
       <use x="63.623047" xlink:href="#DejaVuSans-2e"/>
       <use x="95.410156" xlink:href="#DejaVuSans-30"/>
       <use x="159.033203" xlink:href="#DejaVuSans-38"/>
      </g>
     </g>
    </g>
    <g id="ytick_6">
     <g id="line2d_12">
      <g>
       <use style="stroke:#000000;stroke-width:0.8;" x="135" xlink:href="#mcf175595d0" y="195.429911"/>
      </g>
     </g>
     <g id="text_13">
      <!-- 0.10 -->
      <g transform="translate(105.734375 199.22913)scale(0.1 -0.1)">
       <use xlink:href="#DejaVuSans-30"/>
       <use x="63.623047" xlink:href="#DejaVuSans-2e"/>
       <use x="95.410156" xlink:href="#DejaVuSans-31"/>
       <use x="159.033203" xlink:href="#DejaVuSans-30"/>
      </g>
     </g>
    </g>
    <g id="ytick_7">
     <g id="line2d_13">
      <g>
       <use style="stroke:#000000;stroke-width:0.8;" x="135" xlink:href="#mcf175595d0" y="108.515893"/>
      </g>
     </g>
     <g id="text_14">
      <!-- 0.12 -->
      <g transform="translate(105.734375 112.315112)scale(0.1 -0.1)">
       <use xlink:href="#DejaVuSans-30"/>
       <use x="63.623047" xlink:href="#DejaVuSans-2e"/>
       <use x="95.410156" xlink:href="#DejaVuSans-31"/>
       <use x="159.033203" xlink:href="#DejaVuSans-32"/>
      </g>
     </g>
    </g>
    <g id="text_15">
     <!-- Probability -->
     <defs>
      <path d="M 19.671875 64.796875 
L 19.671875 37.40625 
L 32.078125 37.40625 
Q 38.96875 37.40625 42.71875 40.96875 
Q 46.484375 44.53125 46.484375 51.125 
Q 46.484375 57.671875 42.71875 61.234375 
Q 38.96875 64.796875 32.078125 64.796875 
z
M 9.8125 72.90625 
L 32.078125 72.90625 
Q 44.34375 72.90625 50.609375 67.359375 
Q 56.890625 61.8125 56.890625 51.125 
Q 56.890625 40.328125 50.609375 34.8125 
Q 44.34375 29.296875 32.078125 29.296875 
L 19.671875 29.296875 
L 19.671875 0 
L 9.8125 0 
z
" id="DejaVuSans-50"/>
      <path d="M 48.6875 27.296875 
Q 48.6875 37.203125 44.609375 42.84375 
Q 40.53125 48.484375 33.40625 48.484375 
Q 26.265625 48.484375 22.1875 42.84375 
Q 18.109375 37.203125 18.109375 27.296875 
Q 18.109375 17.390625 22.1875 11.75 
Q 26.265625 6.109375 33.40625 6.109375 
Q 40.53125 6.109375 44.609375 11.75 
Q 48.6875 17.390625 48.6875 27.296875 
z
M 18.109375 46.390625 
Q 20.953125 51.265625 25.265625 53.625 
Q 29.59375 56 35.59375 56 
Q 45.5625 56 51.78125 48.09375 
Q 58.015625 40.1875 58.015625 27.296875 
Q 58.015625 14.40625 51.78125 6.484375 
Q 45.5625 -1.421875 35.59375 -1.421875 
Q 29.59375 -1.421875 25.265625 0.953125 
Q 20.953125 3.328125 18.109375 8.203125 
L 18.109375 0 
L 9.078125 0 
L 9.078125 75.984375 
L 18.109375 75.984375 
z
" id="DejaVuSans-62"/>
      <path d="M 34.28125 27.484375 
Q 23.390625 27.484375 19.1875 25 
Q 14.984375 22.515625 14.984375 16.5 
Q 14.984375 11.71875 18.140625 8.90625 
Q 21.296875 6.109375 26.703125 6.109375 
Q 34.1875 6.109375 38.703125 11.40625 
Q 43.21875 16.703125 43.21875 25.484375 
L 43.21875 27.484375 
z
M 52.203125 31.203125 
L 52.203125 0 
L 43.21875 0 
L 43.21875 8.296875 
Q 40.140625 3.328125 35.546875 0.953125 
Q 30.953125 -1.421875 24.3125 -1.421875 
Q 15.921875 -1.421875 10.953125 3.296875 
Q 6 8.015625 6 15.921875 
Q 6 25.140625 12.171875 29.828125 
Q 18.359375 34.515625 30.609375 34.515625 
L 43.21875 34.515625 
L 43.21875 35.40625 
Q 43.21875 41.609375 39.140625 45 
Q 35.0625 48.390625 27.6875 48.390625 
Q 23 48.390625 18.546875 47.265625 
Q 14.109375 46.140625 10.015625 43.890625 
L 10.015625 52.203125 
Q 14.9375 54.109375 19.578125 55.046875 
Q 24.21875 56 28.609375 56 
Q 40.484375 56 46.34375 49.84375 
Q 52.203125 43.703125 52.203125 31.203125 
z
" id="DejaVuSans-61"/>
      <path d="M 9.421875 75.984375 
L 18.40625 75.984375 
L 18.40625 0 
L 9.421875 0 
z
" id="DejaVuSans-6c"/>
      <path d="M 32.171875 -5.078125 
Q 28.375 -14.84375 24.75 -17.8125 
Q 21.140625 -20.796875 15.09375 -20.796875 
L 7.90625 -20.796875 
L 7.90625 -13.28125 
L 13.1875 -13.28125 
Q 16.890625 -13.28125 18.9375 -11.515625 
Q 21 -9.765625 23.484375 -3.21875 
L 25.09375 0.875 
L 2.984375 54.6875 
L 12.5 54.6875 
L 29.59375 11.921875 
L 46.6875 54.6875 
L 56.203125 54.6875 
z
" id="DejaVuSans-79"/>
     </defs>
     <g transform="translate(98.614844 398.139844)rotate(-90)scale(0.15 -0.15)">
      <use xlink:href="#DejaVuSans-50"/>
      <use x="60.287109" xlink:href="#DejaVuSans-72"/>
      <use x="101.369141" xlink:href="#DejaVuSans-6f"/>
      <use x="162.550781" xlink:href="#DejaVuSans-62"/>
      <use x="226.027344" xlink:href="#DejaVuSans-61"/>
      <use x="287.306641" xlink:href="#DejaVuSans-62"/>
      <use x="350.783203" xlink:href="#DejaVuSans-69"/>
      <use x="378.566406" xlink:href="#DejaVuSans-6c"/>
      <use x="406.349609" xlink:href="#DejaVuSans-69"/>
      <use x="434.132812" xlink:href="#DejaVuSans-74"/>
      <use x="473.341797" xlink:href="#DejaVuSans-79"/>
     </g>
    </g>
   </g>
   <g id="patch_103">
    <path d="M 135 630 
L 135 86.4 
" style="fill:none;stroke:#000000;stroke-linecap:square;stroke-linejoin:miter;stroke-width:0.8;"/>
   </g>
   <g id="patch_104">
    <path d="M 972 630 
L 972 86.4 
" style="fill:none;stroke:#000000;stroke-linecap:square;stroke-linejoin:miter;stroke-width:0.8;"/>
   </g>
   <g id="patch_105">
    <path d="M 135 630 
L 972 630 
" style="fill:none;stroke:#000000;stroke-linecap:square;stroke-linejoin:miter;stroke-width:0.8;"/>
   </g>
   <g id="patch_106">
    <path d="M 135 86.4 
L 972 86.4 
" style="fill:none;stroke:#000000;stroke-linecap:square;stroke-linejoin:miter;stroke-width:0.8;"/>
   </g>
   <g id="legend_1">
    <g id="patch_107">
     <path d="M 909.725 123.75625 
L 965 123.75625 
Q 967 123.75625 967 121.75625 
L 967 93.4 
Q 967 91.4 965 91.4 
L 909.725 91.4 
Q 907.725 91.4 907.725 93.4 
L 907.725 121.75625 
Q 907.725 123.75625 909.725 123.75625 
z
" style="fill:#ffffff;opacity:0.8;stroke:#cccccc;stroke-linejoin:miter;"/>
    </g>
    <g id="patch_108">
     <path d="M 911.725 102.998437 
L 931.725 102.998437 
L 931.725 95.998437 
L 911.725 95.998437 
z
" style="fill:#008000;"/>
    </g>
    <g id="text_16">
     <!-- train -->
     <g transform="translate(939.725 102.998437)scale(0.1 -0.1)">
      <use xlink:href="#DejaVuSans-74"/>
      <use x="39.208984" xlink:href="#DejaVuSans-72"/>
      <use x="80.322266" xlink:href="#DejaVuSans-61"/>
      <use x="141.601562" xlink:href="#DejaVuSans-69"/>
      <use x="169.384766" xlink:href="#DejaVuSans-6e"/>
     </g>
    </g>
    <g id="patch_109">
     <path d="M 911.725 117.676562 
L 931.725 117.676562 
L 931.725 110.676562 
L 911.725 110.676562 
z
" style="fill:#ff0000;opacity:0.7;"/>
    </g>
    <g id="text_17">
     <!-- test -->
     <g transform="translate(939.725 117.676562)scale(0.1 -0.1)">
      <use xlink:href="#DejaVuSans-74"/>
      <use x="39.208984" xlink:href="#DejaVuSans-65"/>
      <use x="100.732422" xlink:href="#DejaVuSans-73"/>
      <use x="152.832031" xlink:href="#DejaVuSans-74"/>
     </g>
    </g>
   </g>
  </g>
 </g>
 <defs>
  <clipPath id="pb36c989437">
   <rect height="543.6" width="837" x="135" y="86.4"/>
  </clipPath>
 </defs>
</svg>
